<?xml version="1.0" encoding="utf-8"?>

<!-- License Agreement at http://iconmonstr.com/license/ -->

<!DOCTYPE svg PUBLIC "-//W3C//DTD SVG 1.1//EN" "http://www.w3.org/Graphics/SVG/1.1/DTD/svg11.dtd">
<svg version="1.1" xmlns="http://www.w3.org/2000/svg" xmlns:xlink="http://www.w3.org/1999/xlink" x="0px" y="0px"
	 width="48px" height="48px" viewBox="0 0 512 512" style="enable-background:new 0 0 512 512;" xml:space="preserve">
<path id="flashlight-11" d="M256,50C142.237,50,50,142.229,50,256c0,113.763,92.237,206,206,206s206-92.237,206-206
	C462,142.229,369.763,50,256,50z M324.666,170.167c9.489,0,17.168,7.687,17.168,17.167c0,9.48-7.679,17.167-17.168,17.167
	c-9.488,0-17.166-7.687-17.166-17.167C307.5,177.853,315.178,170.167,324.666,170.167z M256,135.833
	c9.488,0,17.166,7.687,17.166,17.167c0,9.48-7.678,17.167-17.166,17.167c-9.489,0-17.167-7.686-17.167-17.167
	C238.833,143.52,246.511,135.833,256,135.833z M187.333,170.167c9.488,0,17.167,7.687,17.167,17.167
	c0,9.48-7.678,17.167-17.167,17.167c-9.489,0-17.167-7.687-17.167-17.167C170.167,177.853,177.845,170.167,187.333,170.167z
	 M153,273.166c-9.489,0-17.167-7.686-17.167-17.166c0-9.48,7.678-17.167,17.167-17.167s17.167,7.687,17.167,17.167
	C170.167,265.48,162.489,273.166,153,273.166z M187.333,341.834c-9.489,0-17.167-7.679-17.167-17.168
	c0-9.488,7.678-17.166,17.167-17.166c9.488,0,17.167,7.678,17.167,17.166C204.5,334.155,196.822,341.834,187.333,341.834z
	 M256,376.166c-9.489,0-17.167-7.678-17.167-17.166s7.678-17.166,17.167-17.166c9.488,0,17.166,7.678,17.166,17.166
	S265.488,376.166,256,376.166z M256,307.5c-28.432,0-51.5-23.068-51.5-51.5c0-28.44,23.068-51.5,51.5-51.5
	c28.432,0,51.5,23.06,51.5,51.5C307.5,284.432,284.432,307.5,256,307.5z M324.666,341.834c-9.488,0-17.166-7.679-17.166-17.168
	c0-9.488,7.678-17.166,17.166-17.166c9.489,0,17.168,7.678,17.168,17.166C341.834,334.155,334.155,341.834,324.666,341.834z
	 M359,273.166c-9.488,0-17.166-7.686-17.166-17.166c0-9.48,7.678-17.167,17.166-17.167s17.166,7.687,17.166,17.167
	C376.166,265.48,368.488,273.166,359,273.166z"/>
</svg>
